<?xml version="1.0" standalone="no"?>
<!DOCTYPE svg PUBLIC "-//W3C//DTD SVG 20010904//EN"
 "http://www.w3.org/TR/2001/REC-SVG-20010904/DTD/svg10.dtd">
<svg version="1.0" xmlns="http://www.w3.org/2000/svg"
 width="645.000000pt" height="81.000000pt" viewBox="0 0 645.000000 81.000000"
 preserveAspectRatio="xMidYMid meet">

<g transform="translate(0.000000,81.000000) scale(0.100000,-0.100000)"
fill="#000000" stroke="none">
<path d="M4421 700 c-50 -12 -84 -42 -100 -87 -31 -88 11 -135 159 -178 81
-24 107 -36 123 -57 17 -22 19 -33 11 -54 -33 -95 -215 -95 -261 0 -12 26 -23
36 -41 36 -17 0 -22 -4 -18 -17 2 -10 7 -28 11 -40 11 -38 69 -80 130 -93 142
-30 256 58 224 173 -14 53 -55 80 -165 111 -109 30 -134 46 -134 86 0 58 95
97 173 71 35 -12 67 -47 67 -74 0 -10 8 -13 26 -9 21 4 25 9 19 29 -15 63 -62
97 -145 106 -25 3 -60 2 -79 -3z"/>
<path d="M210 456 l0 -246 95 0 c124 0 185 14 219 49 55 58 42 161 -25 194
l-29 14 25 21 c45 39 55 109 22 153 -32 42 -67 53 -188 57 l-119 4 0 -246z
m256 161 c31 -36 31 -71 -1 -102 -22 -23 -32 -25 -115 -25 l-90 0 0 81 0 81
91 -4 c85 -3 92 -5 115 -31z m-11 -192 c42 -17 60 -56 48 -100 -13 -46 -61
-65 -160 -65 l-83 0 0 90 0 90 80 0 c48 0 95 -6 115 -15z"/>
<path d="M2010 455 l0 -245 25 0 25 0 2 198 3 197 133 -197 c113 -169 136
-198 157 -198 l25 0 0 245 0 245 -25 0 -25 0 -2 -197 -3 -196 -130 196 c-116
176 -133 197 -157 197 l-28 0 0 -245z"/>
<path d="M3850 456 l0 -246 25 0 c24 0 24 1 27 103 l3 102 110 5 c62 3 120 11
133 18 56 32 80 129 47 192 -26 50 -65 63 -212 68 l-133 5 0 -247z m286 161
c26 -31 30 -62 13 -100 -17 -37 -50 -47 -154 -47 l-95 0 0 83 c0 46 3 87 8 91
4 4 51 6 105 4 94 -3 100 -4 123 -31z"/>
<path d="M4970 455 l0 -245 25 0 25 0 0 105 0 105 95 0 c155 0 205 35 205 141
0 109 -56 139 -256 139 l-94 0 0 -245z m246 185 c38 -15 53 -38 54 -83 0 -27
-7 -45 -25 -62 -22 -23 -31 -25 -125 -25 l-100 0 0 90 0 90 84 0 c47 0 97 -5
112 -10z"/>
<path d="M5420 665 c0 -28 4 -35 20 -35 16 0 20 7 20 35 0 28 -4 35 -20 35
-16 0 -20 -7 -20 -35z"/>
<path d="M5570 455 l0 -245 25 0 25 0 0 245 0 245 -25 0 -25 0 0 -245z"/>
<path d="M2913 665 c-17 -12 -23 -26 -23 -56 0 -32 -3 -39 -20 -39 -13 0 -20
-7 -20 -20 0 -13 7 -20 20 -20 19 0 20 -7 21 -127 1 -71 4 -139 8 -153 8 -30
51 -53 84 -45 34 9 24 41 -14 49 l-29 5 0 136 0 135 30 0 c23 0 30 4 30 20 0
15 -7 20 -30 20 -28 0 -29 1 -32 55 -3 55 -3 55 -25 40z"/>
<path d="M755 571 c-48 -12 -74 -30 -90 -61 -20 -38 -19 -40 10 -40 14 0 25 5
25 10 0 6 9 19 20 30 15 15 33 20 73 20 59 0 80 -14 92 -62 8 -33 9 -33 -105
-52 -73 -13 -89 -20 -112 -46 -74 -82 10 -190 123 -160 24 7 55 21 68 32 l26
19 8 -25 c6 -18 16 -26 32 -26 22 0 23 2 14 32 -5 18 -9 83 -9 145 0 121 -9
155 -46 172 -35 15 -94 21 -129 12z m129 -226 c-16 -85 -107 -132 -166 -85
-30 23 -36 56 -15 83 13 18 167 58 180 47 5 -4 5 -24 1 -45z"/>
<path d="M1475 565 c-22 -8 -50 -26 -62 -40 -47 -54 -57 -164 -20 -235 29 -59
74 -85 145 -84 60 1 96 22 125 73 l19 31 -31 0 c-17 0 -31 -4 -31 -10 0 -24
-45 -50 -87 -50 -52 0 -100 38 -109 88 l-6 32 131 0 131 0 0 38 c0 46 -36 119
-70 143 -36 26 -89 31 -135 14z m106 -45 c21 -12 49 -60 49 -85 0 -13 -17 -15
-105 -15 -68 0 -105 4 -105 11 0 16 20 51 43 77 22 24 83 30 118 12z"/>
<path d="M1848 550 c-36 -36 -38 -37 -38 -5 0 18 -5 25 -20 25 -19 0 -20 -7
-20 -180 l0 -180 25 0 25 0 0 129 c0 115 2 131 21 155 16 20 29 26 59 26 30 0
39 4 43 21 4 15 -1 22 -19 30 -37 13 -43 12 -76 -21z"/>
<path d="M2585 565 c-22 -8 -50 -26 -62 -40 -47 -54 -57 -164 -20 -235 29 -59
74 -85 145 -84 60 1 96 22 125 73 l19 31 -31 0 c-17 0 -31 -4 -31 -10 0 -24
-45 -50 -87 -50 -52 0 -100 38 -109 88 l-6 32 131 0 131 0 0 38 c0 46 -36 119
-70 143 -36 26 -89 31 -135 14z m106 -45 c21 -12 49 -60 49 -85 0 -13 -17 -15
-105 -15 -68 0 -105 4 -105 11 0 16 20 51 43 77 22 24 83 30 118 12z"/>
<path d="M5825 571 c-48 -12 -74 -30 -90 -61 -20 -38 -19 -40 10 -40 14 0 25
5 25 10 0 6 9 19 20 30 15 15 33 20 73 20 59 0 80 -14 92 -62 8 -33 9 -33
-105 -52 -73 -13 -89 -20 -112 -46 -74 -82 10 -190 123 -160 24 7 55 21 68 32
l26 19 8 -25 c6 -18 16 -26 32 -26 22 0 23 2 14 32 -5 18 -9 83 -9 145 0 121
-9 155 -46 172 -35 15 -94 21 -129 12z m129 -226 c-16 -85 -107 -132 -166 -85
-30 23 -36 56 -15 83 13 18 167 58 180 47 5 -4 5 -24 1 -45z"/>
<path d="M6188 550 c-36 -36 -38 -37 -38 -5 0 18 -5 25 -20 25 -19 0 -20 -7
-20 -180 l0 -180 25 0 25 0 0 129 c0 115 2 131 21 155 16 20 29 26 59 26 30 0
39 4 43 21 4 15 -1 22 -19 30 -37 13 -43 12 -76 -21z"/>
<path d="M1021 543 c100 -261 120 -327 114 -360 -8 -42 -37 -73 -70 -73 -18 0
-25 -5 -25 -19 0 -43 73 -33 104 14 10 14 50 117 91 228 40 111 76 210 80 220
6 13 2 17 -17 17 -22 0 -28 -12 -71 -132 -26 -73 -47 -139 -47 -145 0 -7 -4
-13 -9 -13 -4 0 -31 64 -58 143 -46 132 -51 142 -76 145 -26 3 -27 2 -16 -25z"/>
<path d="M5420 390 c0 -173 1 -180 20 -180 19 0 20 7 20 180 0 173 -1 180 -20
180 -19 0 -20 -7 -20 -180z"/>
<path d="M3220 390 c0 -19 7 -20 185 -20 178 0 185 1 185 20 0 19 -7 20 -185
20 -178 0 -185 -1 -185 -20z"/>
</g>
</svg>
